<svg width="122" height="40" viewBox="0 0 122 40" fill="none" xmlns="http://www.w3.org/2000/svg">
<g clip-path="url(#clip0_3811_5043)">
<path d="M37.4953 4.34624C37.554 3.43954 37.8824 2.57037 38.4391 1.84845C38.9959 1.12652 39.756 0.584192 40.6235 0.289902C41.491 -0.00438828 42.427 -0.0374482 43.3135 0.194895C44.1999 0.427238 44.9971 0.91457 45.6042 1.59539C46.2114 2.2762 46.6015 3.11999 46.7252 4.02026C46.8489 4.92052 46.7006 5.83692 46.2992 6.65378C45.8977 7.47065 45.2611 8.15138 44.4696 8.61005C43.6781 9.06873 42.7671 9.2848 41.8518 9.23098C41.242 9.19396 40.6455 9.03821 40.0964 8.77264C39.5474 8.50706 39.0565 8.13687 38.6519 7.68322C38.2473 7.22957 37.9369 6.70136 37.7385 6.12878C37.54 5.5562 37.4574 4.95048 37.4953 4.34624Z" fill="#E73B75"/>
<path d="M54.4334 31.5377C54.1194 32.0651 53.7754 32.5744 53.4031 33.0632C51.9723 35.0077 49.7151 36.4564 47.5085 37.2457C44.2799 38.4026 40.8133 38.7533 37.4153 38.2666C35.8585 38.0684 34.319 37.7537 32.8101 37.3254C32.6713 37.2858 32.5255 37.2767 32.3828 37.2988C36.8642 34.8731 40.2706 30.8775 41.9353 26.0941C43.6 21.3106 43.4031 16.0838 41.3832 11.4367C41.4756 11.3687 41.5755 11.3113 41.681 11.2655C42.4418 10.9543 43.3352 11.1446 44.0364 11.5414C46.5259 12.9668 48.8313 14.6869 50.9018 16.6637C51.7652 17.4998 52.5492 18.413 53.2438 19.3915C54.4766 21.0881 55.3804 22.9529 55.6692 24.9652C56.0014 27.2312 55.5669 29.5424 54.4334 31.5377Z" fill="#E73B75"/>
<path d="M43.0555 19.4739C43.0569 23.12 42.0665 26.6991 40.1884 29.8346C38.3102 32.97 35.6139 35.5459 32.3831 37.2912C32.2347 37.3169 32.0908 37.3636 31.9558 37.4298C31.1068 37.8311 30.2283 38.1679 29.3278 38.4375C26.7827 39.2382 24.147 39.7229 21.4813 39.8803C18.0271 40.1857 14.5773 39.9157 11.2556 38.8653C9.25625 38.1985 7.38733 37.1965 5.73027 35.9029C4.60176 35.0114 3.59391 33.9796 2.73163 32.8328C1.23155 30.8693 0.323035 28.5251 0.111162 26.0714C0.058085 24.41 0.225277 22.7489 0.608455 21.1306C0.971848 19.5591 1.46024 18.0184 2.06907 16.5233C3.37632 13.2776 5.29402 9.80766 7.66137 7.13292C9.36765 5.20765 11.4864 3.82086 14.1158 3.56711C16.7274 3.28302 19.3627 3.82747 21.6421 5.12208C22.3643 5.53006 23.0253 6.03607 23.606 6.62542C25.348 8.39579 25.8706 10.5453 24.9043 12.9147C24.346 14.4062 23.2487 15.8653 22.2868 17.0558C21.8898 17.5535 20.8381 18.6934 19.1319 20.4756C18.5363 21.1011 18.1328 21.6086 17.4658 22.4215C17.2854 22.6758 17.128 22.9454 16.9953 23.2271C16.1332 25.1051 17.0251 27.4494 19.4252 27.2251C19.8539 27.1847 20.2748 27.0854 20.6758 26.9301C20.9895 26.8054 21.2949 26.661 21.59 26.4978C22.9281 25.7543 24.2269 24.9674 25.4865 24.1373C27.1342 23.0554 28.7387 21.9204 30.3001 20.7323L34.3737 17.5294C36.5445 15.759 38.6518 13.9188 40.6956 12.0088C40.9124 11.8014 41.1421 11.6078 41.3835 11.429C42.4904 13.969 43.0595 16.7071 43.0555 19.4739Z" fill="url(#paint0_linear_3811_5043)"/>
</g>
<path d="M69.069 13.0259V27H67.3505V13.0259H69.069ZM81.1754 16.6516V27H79.4569V25.4704C79.1296 25.9992 78.6701 26.4146 78.0784 26.7167C77.4993 27.0063 76.8572 27.1511 76.1522 27.1511C75.3465 27.1511 74.6226 26.9874 73.9806 26.6601C73.3385 26.3202 72.8287 25.8166 72.451 25.1494C72.0859 24.4821 71.9033 23.6701 71.9033 22.7133V16.6516H73.6029V22.4867C73.6029 23.5065 73.861 24.2933 74.3771 24.8472C74.8933 25.3886 75.5983 25.6592 76.4921 25.6592C77.4112 25.6592 78.135 25.376 78.6638 24.8095C79.1925 24.2429 79.4569 23.4183 79.4569 22.3357V16.6516H81.1754Z" fill="#FC1A70"/>
<path d="M85.7953 18.5589C86.1352 17.9672 86.6388 17.4762 87.306 17.0859C87.9858 16.6831 88.7726 16.4817 89.6665 16.4817C90.5855 16.4817 91.4164 16.702 92.1592 17.1426C92.9145 17.5832 93.5062 18.2064 93.9343 19.0121C94.3623 19.8052 94.5763 20.7305 94.5763 21.788C94.5763 22.8329 94.3623 23.7646 93.9343 24.5829C93.5062 25.4012 92.9145 26.0369 92.1592 26.4901C91.4164 26.9433 90.5855 27.17 89.6665 27.17C88.7852 27.17 88.0047 26.9748 87.3249 26.5846C86.6576 26.1817 86.1478 25.6844 85.7953 25.0927V31.9098H84.0768V16.6516H85.7953V18.5589ZM92.8201 21.788C92.8201 21.0075 92.6627 20.3277 92.348 19.7486C92.0333 19.1695 91.6052 18.7288 91.0639 18.4267C90.5351 18.1246 89.9497 17.9735 89.3077 17.9735C88.6782 17.9735 88.0928 18.1308 87.5515 18.4456C87.0227 18.7477 86.5947 19.1946 86.2674 19.7863C85.9526 20.3654 85.7953 21.039 85.7953 21.8069C85.7953 22.5875 85.9526 23.2736 86.2674 23.8653C86.5947 24.4444 87.0227 24.8913 87.5515 25.206C88.0928 25.5082 88.6782 25.6592 89.3077 25.6592C89.9497 25.6592 90.5351 25.5082 91.0639 25.206C91.6052 24.8913 92.0333 24.4444 92.348 23.8653C92.6627 23.2736 92.8201 22.5812 92.8201 21.788ZM98.5567 18.5589C98.8966 17.9672 99.4002 17.4762 100.067 17.0859C100.747 16.6831 101.534 16.4817 102.428 16.4817C103.347 16.4817 104.178 16.702 104.921 17.1426C105.676 17.5832 106.268 18.2064 106.696 19.0121C107.124 19.8052 107.338 20.7305 107.338 21.788C107.338 22.8329 107.124 23.7646 106.696 24.5829C106.268 25.4012 105.676 26.0369 104.921 26.4901C104.178 26.9433 103.347 27.17 102.428 27.17C101.547 27.17 100.766 26.9748 100.086 26.5846C99.4191 26.1817 98.9092 25.6844 98.5567 25.0927V31.9098H96.8382V16.6516H98.5567V18.5589ZM105.582 21.788C105.582 21.0075 105.424 20.3277 105.109 19.7486C104.795 19.1695 104.367 18.7288 103.825 18.4267C103.297 18.1246 102.711 17.9735 102.069 17.9735C101.44 17.9735 100.854 18.1308 100.313 18.4456C99.7841 18.7477 99.3561 19.1946 99.0288 19.7863C98.7141 20.3654 98.5567 21.039 98.5567 21.8069C98.5567 22.5875 98.7141 23.2736 99.0288 23.8653C99.3561 24.4444 99.7841 24.8913 100.313 25.206C100.854 25.5082 101.44 25.6592 102.069 25.6592C102.711 25.6592 103.297 25.5082 103.825 25.206C104.367 24.8913 104.795 24.4444 105.109 23.8653C105.424 23.2736 105.582 22.5812 105.582 21.788ZM108.958 21.788C108.958 20.7305 109.172 19.8052 109.6 19.0121C110.028 18.2064 110.613 17.5832 111.356 17.1426C112.111 16.702 112.948 16.4817 113.867 16.4817C114.774 16.4817 115.561 16.6768 116.228 17.0671C116.895 17.4573 117.392 17.9483 117.72 18.54V16.6516H119.457V27H117.72V25.0738C117.38 25.6781 116.87 26.1817 116.19 26.5846C115.523 26.9748 114.742 27.17 113.849 27.17C112.93 27.17 112.099 26.9433 111.356 26.4901C110.613 26.0369 110.028 25.4012 109.6 24.5829C109.172 23.7646 108.958 22.8329 108.958 21.788ZM117.72 21.8069C117.72 21.0264 117.562 20.3466 117.248 19.7675C116.933 19.1883 116.505 18.7477 115.964 18.4456C115.435 18.1308 114.849 17.9735 114.207 17.9735C113.565 17.9735 112.98 18.1246 112.451 18.4267C111.922 18.7288 111.501 19.1695 111.186 19.7486C110.871 20.3277 110.714 21.0075 110.714 21.788C110.714 22.5812 110.871 23.2736 111.186 23.8653C111.501 24.4444 111.922 24.8913 112.451 25.206C112.98 25.5082 113.565 25.6592 114.207 25.6592C114.849 25.6592 115.435 25.5082 115.964 25.206C116.505 24.8913 116.933 24.4444 117.248 23.8653C117.562 23.2736 117.72 22.5875 117.72 21.8069Z" fill="#FF3930"/>
<defs>
<linearGradient id="paint0_linear_3811_5043" x1="14.3525" y1="15.3415" x2="27.3185" y2="27.3244" gradientUnits="userSpaceOnUse">
<stop stop-color="#FEB006"/>
<stop offset="0.25" stop-color="#FE8E10"/>
<stop offset="0.53" stop-color="#FF621D"/>
<stop offset="0.61" stop-color="#FB592C"/>
<stop offset="0.87" stop-color="#ED3D5C"/>
<stop offset="1" stop-color="#E8326F"/>
</linearGradient>
<clipPath id="clip0_3811_5043">
<rect width="55.673" height="40" fill="white" transform="translate(0.101562)"/>
</clipPath>
</defs>
</svg>
